<svg width="16" height="16" viewBox="0 0 16 16" fill="none" xmlns="http://www.w3.org/2000/svg">
    <g id="Layer 2">
        <g id="arrow-ios-forward">
            <path id="Vector"
                  d="M12.3239 9.69447C12.3236 9.83872 12.2693 9.98968 12.1699 10.1096C12.1139 10.1771 12.0452 10.2329 11.9676 10.2738C11.8901 10.3147 11.8052 10.3399 11.7179 10.3479C11.6306 10.3559 11.5426 10.3466 11.4588 10.3206C11.3749 10.2946 11.2971 10.2523 11.2299 10.1962L7.65657 7.20947L4.07657 10.0895C4.0084 10.1449 3.93002 10.1863 3.84576 10.2113C3.76151 10.2363 3.67325 10.2444 3.58584 10.2351C3.49844 10.2258 3.41376 10.1993 3.33665 10.1572C3.25953 10.1151 3.19142 10.0582 3.13641 9.98973C3.0757 9.92075 3.03 9.83998 3.00197 9.75247C2.97394 9.66496 2.96433 9.57261 2.97377 9.48122C2.98321 9.38982 3.01129 9.30135 3.05646 9.22136C3.10164 9.14138 3.16291 9.07159 3.23629 9.01638L7.23629 5.79638C7.35557 5.69831 7.5052 5.6447 7.65964 5.6447C7.81406 5.6447 7.96369 5.69831 8.083 5.79638L12.083 9.1297C12.1637 9.19658 12.2274 9.28154 12.2691 9.37768C12.3108 9.47382 12.3293 9.57843 12.3239 9.68304V9.69447Z"
                  fill="#FFFEFE"/>
        </g>
    </g>
</svg>
