<svg width="21" height="20" viewBox="0 0 21 20" fill="none" xmlns="http://www.w3.org/2000/svg">
<path d="M11.3144 8.97812C11.3219 8.96875 11.3287 8.95875 11.3337 8.94812V8.97812H11.3144ZM20.5 0V20H0.5V0H20.5ZM6.70312 7.67812H3.72062V16.6494H6.70312V7.67812ZM6.89813 4.90438C6.87938 4.02313 6.25125 3.35312 5.23062 3.35312C4.21125 3.35312 3.54437 4.02313 3.54437 4.90438C3.54437 5.76375 4.19125 6.45375 5.19187 6.45375H5.21125C6.25125 6.45375 6.89813 5.76375 6.89813 4.90438ZM17.4556 11.505C17.4556 8.75 15.9838 7.46813 14.0219 7.46813C12.44 7.46813 11.7319 8.3375 11.3337 8.94812V7.67812H8.3525C8.39062 8.51937 8.3525 16.6494 8.3525 16.6494H11.3337V11.6394C11.3337 11.3681 11.3531 11.105 11.4319 10.9119C11.6481 10.3781 12.1394 9.82063 12.9619 9.82063C14.0425 9.82063 14.4731 10.6419 14.4731 11.8494V16.6494H17.455L17.4556 11.505Z" fill="#0A0A0A"/>
</svg>
