<svg width="27" height="26" viewBox="0 0 27 26" fill="none" xmlns="http://www.w3.org/2000/svg">
<path d="M18.4732 8.1577C18.4781 8.1577 18.4846 8.1577 18.4911 8.1577C18.6609 8.1577 18.8185 8.21051 18.9477 8.30151L18.9452 8.29988C19.0395 8.38195 19.1029 8.49732 19.1183 8.62732V8.62976C19.1346 8.72888 19.1435 8.84263 19.1435 8.95882C19.1435 9.01163 19.1419 9.06363 19.1378 9.11563V9.10832C18.955 11.0331 18.162 15.7009 17.759 17.8557C17.5884 18.7681 17.2528 19.0736 16.9278 19.1029C16.2217 19.1687 15.6855 18.6365 15.0014 18.188C13.9305 17.4852 13.3252 17.0481 12.286 16.3631C11.0843 15.5726 11.8635 15.1363 12.5476 14.4261C12.7272 14.2393 15.8399 11.4077 15.9008 11.1509C15.9041 11.1355 15.9057 11.1184 15.9057 11.1006C15.9057 11.0372 15.8821 10.9795 15.8439 10.9356C15.8017 10.908 15.7489 10.8926 15.6936 10.8926C15.6571 10.8926 15.6221 10.8999 15.5896 10.9121L15.5913 10.9113C15.484 10.9356 13.7734 12.0661 10.4595 14.3026C10.0979 14.5878 9.64131 14.7682 9.14406 14.7893H9.13919C8.43475 14.704 7.79531 14.5472 7.18837 14.3238L7.2485 14.3433C6.48638 14.0946 5.88106 13.9638 5.93306 13.5429C5.96069 13.3241 6.2624 13.1001 6.83819 12.871C10.385 11.3256 12.7502 10.307 13.9338 9.8152C15.2394 9.12213 16.7531 8.55176 18.3448 8.18207L18.4724 8.15688L18.4732 8.1577ZM13.4422 0.833008C6.69681 0.849258 1.23438 6.32144 1.23438 13.0693C1.23438 19.8268 6.71225 25.3055 13.4706 25.3055C20.229 25.3055 25.7069 19.8276 25.7069 13.0693C25.7069 6.32144 20.2444 0.849258 13.5007 0.833008H13.4991C13.4801 0.833008 13.4611 0.833008 13.4422 0.833008Z" fill="#0A0A0A"/>
</svg>
